<mxfile host="app.diagrams.net" modified="2024-03-04T16:50:02.727Z" agent="Mozilla/5.0 (X11; Linux x86_64) AppleWebKit/537.36 (KHTML, like Gecko) Chrome/120.0.0.0 Safari/537.36" version="22.1.16" etag="lnxEDWxmlfcJeeTGKV2u" type="github">
  <diagram name="Page-1" id="UW5lEJY6WR6eHwexxd-V">
    <mxGraphModel>
      <root>
        <mxCell id="0" />
        <mxCell id="1" parent="0" />
      </root>
    </mxGraphModel>
  </diagram>
</mxfile>
